<svg id="visual" viewBox="0 0 900 600" width="900" height="600" xmlns="http://www.w3.org/2000/svg" xmlns:xlink="http://www.w3.org/1999/xlink" version="1.1"><rect x="0" y="0" width="900" height="600" fill="#001220"></rect><path d="M0 446L21.5 439.3C43 432.7 86 419.3 128.8 405.7C171.7 392 214.3 378 257.2 384.5C300 391 343 418 385.8 427.8C428.7 437.7 471.3 430.3 514.2 422.2C557 414 600 405 642.8 399.7C685.7 394.3 728.3 392.7 771.2 400.2C814 407.7 857 424.3 878.5 432.7L900 441L900 601L878.5 601C857 601 814 601 771.2 601C728.3 601 685.7 601 642.8 601C600 601 557 601 514.2 601C471.3 601 428.7 601 385.8 601C343 601 300 601 257.2 601C214.3 601 171.7 601 128.8 601C86 601 43 601 21.5 601L0 601Z" fill="#fa7268"></path><path d="M0 415L21.5 417.7C43 420.3 86 425.7 128.8 429.5C171.7 433.3 214.3 435.7 257.2 431.2C300 426.7 343 415.3 385.8 422.3C428.7 429.3 471.3 454.7 514.2 463.7C557 472.7 600 465.3 642.8 464.7C685.7 464 728.3 470 771.2 463.7C814 457.3 857 438.7 878.5 429.3L900 420L900 601L878.5 601C857 601 814 601 771.2 601C728.3 601 685.7 601 642.8 601C600 601 557 601 514.2 601C471.3 601 428.7 601 385.8 601C343 601 300 601 257.2 601C214.3 601 171.7 601 128.8 601C86 601 43 601 21.5 601L0 601Z" fill="#ef5f67"></path><path d="M0 454L21.5 460.2C43 466.3 86 478.7 128.8 476.3C171.7 474 214.3 457 257.2 455.3C300 453.7 343 467.3 385.8 467.3C428.7 467.3 471.3 453.7 514.2 457.7C557 461.7 600 483.3 642.8 490.8C685.7 498.3 728.3 491.7 771.2 480.7C814 469.7 857 454.3 878.5 446.7L900 439L900 601L878.5 601C857 601 814 601 771.2 601C728.3 601 685.7 601 642.8 601C600 601 557 601 514.2 601C471.3 601 428.7 601 385.8 601C343 601 300 601 257.2 601C214.3 601 171.7 601 128.8 601C86 601 43 601 21.5 601L0 601Z" fill="#e34c67"></path><path d="M0 499L21.5 500C43 501 86 503 128.8 508.7C171.7 514.3 214.3 523.7 257.2 529.5C300 535.3 343 537.7 385.8 535.2C428.7 532.7 471.3 525.3 514.2 522.8C557 520.3 600 522.7 642.8 526.8C685.7 531 728.3 537 771.2 536.3C814 535.7 857 528.3 878.5 524.7L900 521L900 601L878.5 601C857 601 814 601 771.2 601C728.3 601 685.7 601 642.8 601C600 601 557 601 514.2 601C471.3 601 428.7 601 385.8 601C343 601 300 601 257.2 601C214.3 601 171.7 601 128.8 601C86 601 43 601 21.5 601L0 601Z" fill="#d53867"></path><path d="M0 552L21.5 553.8C43 555.7 86 559.3 128.8 559.7C171.7 560 214.3 557 257.2 552C300 547 343 540 385.8 538.3C428.7 536.7 471.3 540.3 514.2 544C557 547.7 600 551.3 642.8 553.8C685.7 556.3 728.3 557.7 771.2 560.5C814 563.3 857 567.7 878.5 569.8L900 572L900 601L878.5 601C857 601 814 601 771.2 601C728.3 601 685.7 601 642.8 601C600 601 557 601 514.2 601C471.3 601 428.7 601 385.8 601C343 601 300 601 257.2 601C214.3 601 171.7 601 128.8 601C86 601 43 601 21.5 601L0 601Z" fill="#c62368"></path></svg>